<?xml version="1.0" standalone="no"?>
<!DOCTYPE svg PUBLIC "-//W3C//DTD SVG 20010904//EN"
 "http://www.w3.org/TR/2001/REC-SVG-20010904/DTD/svg10.dtd">
<svg version="1.0" xmlns="http://www.w3.org/2000/svg"
 width="640.000000pt" height="640.000000pt" viewBox="0 0 640.000000 640.000000"
 preserveAspectRatio="xMidYMid meet">
<metadata>
Created by potrace 1.14, written by Peter Selinger 2001-2017
</metadata>
<g transform="translate(0.000000,640.000000) scale(0.100000,-0.100000)"
fill="#000000" stroke="none">
<path d="M4674 6273 c22 -448 27 -648 38 -1443 7 -487 12 -1369 13 -1960 l0
-1075 -146 -3 c-109 -2 -149 1 -156 10 -6 7 -16 51 -23 98 -35 247 -138 543
-242 692 -10 14 -18 30 -18 34 0 4 48 58 108 118 59 61 116 124 127 139 11 16
30 41 42 55 29 34 165 312 183 372 7 25 21 70 31 101 37 114 49 202 49 354 0
220 -42 401 -135 584 -15 30 -31 82 -36 115 -18 116 -27 162 -54 266 -15 58
-30 123 -35 145 -4 22 -15 65 -24 95 -10 30 -21 71 -26 90 -5 19 -15 63 -24
96 -8 34 -22 79 -30 100 -8 22 -22 68 -31 104 -62 246 -144 426 -241 528 l-62
64 -63 -4 c-51 -4 -77 -12 -129 -43 -65 -38 -81 -50 -179 -134 -45 -38 -140
-144 -224 -251 -97 -124 -210 -277 -232 -315 -30 -51 -51 -59 -178 -70 -44 -3
-86 -10 -95 -14 -10 -5 -53 -17 -97 -26 -44 -10 -100 -28 -125 -40 -25 -12
-83 -37 -129 -55 -93 -37 -310 -158 -341 -190 -3 -3 -30 -24 -60 -47 -121 -91
-257 -236 -351 -373 -51 -75 -56 -80 -88 -80 -74 0 -394 -100 -508 -159 -23
-11 -46 -21 -51 -21 -4 0 -67 -31 -139 -69 -123 -65 -140 -71 -252 -90 -111
-19 -241 -48 -316 -71 -101 -32 -194 -63 -222 -76 -17 -8 -35 -14 -39 -14 -5
0 -43 -17 -86 -37 l-78 -38 0 -52 c0 -29 2 -53 5 -53 3 0 29 15 58 33 49 30
70 41 142 72 17 7 50 22 75 32 38 17 114 41 255 83 81 24 167 41 173 35 4 -3
-4 -25 -17 -47 -46 -80 -25 -145 86 -268 50 -57 174 -178 281 -278 154 -142
225 -206 249 -225 25 -19 91 -78 129 -114 7 -7 17 -13 22 -13 4 0 19 -12 33
-26 13 -15 40 -37 59 -49 19 -12 46 -33 60 -46 31 -30 86 -70 122 -88 15 -8
68 -56 119 -108 51 -53 107 -105 124 -117 201 -136 290 -182 475 -241 183 -58
226 -65 443 -72 212 -7 207 -4 166 -86 -28 -54 -76 -113 -169 -208 -84 -85
-120 -125 -167 -185 l-32 -41 -133 -7 c-211 -10 -438 -25 -500 -32 l-58 -7
-16 39 c-26 62 -63 140 -71 148 -4 4 -21 31 -38 60 -52 91 -87 142 -199 294
-162 220 -324 399 -436 483 -36 27 -69 52 -75 57 -15 12 -106 58 -143 72 -42
16 -54 4 -22 -21 30 -23 21 -16 143 -108 98 -75 295 -263 345 -330 15 -20 29
-38 32 -41 35 -35 170 -229 170 -245 0 -4 18 -37 39 -74 74 -125 172 -324 164
-331 -4 -4 -75 -13 -158 -19 -82 -7 -177 -16 -210 -21 -33 -6 -125 -19 -205
-30 -80 -12 -162 -25 -183 -31 -20 -5 -56 -14 -80 -20 -65 -16 -151 -45 -185
-63 -42 -22 -51 -20 -58 11 -22 93 -138 282 -231 378 -111 115 -199 176 -333
232 -73 31 -103 41 -186 62 -65 17 -64 17 -64 -59 0 -55 3 -70 15 -70 30 0
315 -138 315 -152 0 -4 5 -8 11 -8 33 0 210 -171 264 -255 19 -30 35 -58 35
-60 0 -3 10 -22 23 -43 12 -20 28 -54 35 -75 15 -43 14 -44 -58 -91 -40 -26
-94 -66 -209 -155 -179 -137 -361 -333 -361 -388 0 -19 -44 -73 -60 -73 -6 0
-10 -37 -10 -83 0 -78 2 -85 28 -110 40 -39 72 -107 74 -160 3 -51 -11 -72
-50 -82 -45 -11 -52 -23 -52 -91 l0 -64 28 6 c15 4 35 11 44 15 9 5 28 9 42 9
25 0 30 -6 91 -121 8 -16 22 -19 92 -19 97 0 105 10 43 56 -35 26 -53 53 -90
139 -8 17 -40 216 -40 245 0 13 55 13 100 0 19 -5 57 -28 84 -50 27 -23 59
-40 73 -40 34 0 25 18 -28 59 -24 18 -57 44 -74 57 -47 37 -155 103 -208 126
-26 12 -47 28 -47 35 0 7 4 13 9 13 5 0 19 21 31 48 56 124 74 150 163 238 89
87 212 191 273 230 16 10 37 26 47 35 42 38 279 143 402 178 35 10 185 37 330
61 84 13 266 49 273 54 13 8 289 36 462 46 162 10 278 19 471 36 l77 7 6 -119
c3 -66 7 -134 8 -153 3 -31 0 -34 -27 -36 -16 -2 -61 -6 -100 -10 -83 -7 -297
-48 -375 -71 -183 -54 -241 -76 -272 -102 -22 -18 -23 -45 -3 -62 12 -10 22
-8 55 9 22 12 49 21 58 21 10 0 22 4 28 8 5 5 32 17 59 26 28 10 59 21 70 26
11 5 31 11 45 13 14 3 51 12 82 21 197 54 587 40 793 -29 78 -27 151 -60 159
-74 4 -5 -5 -18 -18 -29 -14 -10 -44 -48 -67 -83 -33 -49 -44 -75 -47 -116 -3
-40 -1 -53 9 -53 8 0 48 35 90 77 90 92 118 114 202 156 59 31 67 32 177 31
111 0 118 -2 193 -37 80 -38 111 -45 122 -27 7 11 141 99 164 108 9 3 37 21
62 39 26 18 49 33 52 33 4 0 30 11 59 24 29 13 80 27 113 31 33 3 96 10 140
15 102 11 434 11 500 0 62 -10 170 -42 208 -60 30 -15 56 -2 42 20 -20 32
-240 112 -356 130 -66 11 -344 9 -439 -2 -18 -2 -24 1 -21 12 1 8 6 102 9 208
l5 194 181 -7 c194 -8 396 -21 461 -30 22 -3 96 -12 165 -21 129 -15 216 -29
285 -44 22 -5 74 -17 115 -26 223 -49 456 -121 553 -170 16 -8 33 -14 39 -14
6 0 46 -18 90 -40 l79 -41 -3 47 c-4 57 -8 59 -185 129 -271 108 -553 182
-913 239 -173 27 -234 35 -330 41 -52 4 -100 11 -106 16 -8 7 -12 187 -12 652
-1 353 -6 899 -12 1212 -11 540 -15 692 -41 1380 -8 230 -8 317 3 420 13 134
16 817 3 902 l-6 43 -66 0 -65 0 6 -127z m-641 -529 c67 -116 162 -399 232
-689 19 -82 40 -163 45 -180 22 -75 51 -198 47 -208 -2 -6 -39 25 -83 69 -145
144 -258 220 -434 290 -21 9 -40 21 -43 27 -2 7 0 44 4 82 5 39 13 129 19 200
9 117 29 224 62 340 13 46 42 100 72 133 l20 23 18 -23 c10 -13 29 -41 41 -64z
m-273 -909 c335 -77 604 -377 695 -775 9 -41 21 -91 27 -110 12 -42 5 -234
-11 -305 -11 -49 -14 -58 -42 -120 -26 -57 -80 -137 -120 -176 -37 -36 -63
-51 -154 -88 -16 -7 -77 -15 -135 -18 -175 -9 -301 26 -435 122 -165 118 -315
345 -418 631 -66 181 -71 208 -71 354 1 130 2 138 34 215 54 128 142 201 321
264 68 24 217 27 309 6z m-1348 -700 c199 -38 292 -94 426 -255 124 -151 220
-344 257 -520 21 -97 21 -291 1 -390 -25 -119 -68 -193 -158 -270 -213 -185
-422 -217 -666 -104 -189 87 -358 262 -464 480 -37 76 -37 74 -68 179 -29 100
-39 369 -16 475 19 89 72 201 118 251 63 68 171 130 273 154 70 18 206 18 297
0z m-1147 -360 c33 -9 74 -20 90 -24 17 -5 57 -19 90 -32 48 -20 59 -29 57
-44 -10 -70 -13 -304 -4 -375 6 -47 27 -132 47 -190 39 -114 51 -161 38 -145
-4 6 -50 44 -100 85 -51 41 -93 77 -93 81 0 3 -18 18 -40 33 -23 15 -103 88
-179 164 -77 75 -178 175 -226 222 -118 115 -180 189 -169 200 9 8 77 24 174
40 71 12 249 3 315 -15z"/>
<path d="M3600 4560 c-89 -19 -171 -85 -206 -167 -41 -96 -56 -242 -33 -314
55 -172 186 -333 325 -400 66 -33 73 -34 185 -34 105 1 121 3 171 28 64 31
111 75 139 129 24 48 26 215 4 303 -44 169 -168 345 -285 405 -88 45 -222 68
-300 50z"/>
<path d="M2228 3809 c-213 -77 -264 -308 -128 -584 84 -170 180 -259 325 -301
79 -22 203 -15 271 18 67 31 126 94 152 163 44 114 20 285 -52 379 -14 19 -26
38 -26 41 0 13 -153 196 -192 229 -53 46 -115 67 -213 72 -63 3 -92 -1 -137
-17z"/>
<path d="M2095 2020 c-3 -5 20 -26 52 -46 32 -20 65 -43 73 -51 26 -24 123
-93 132 -93 4 0 8 10 7 23 0 25 -118 131 -178 159 -40 19 -77 23 -86 8z"/>
<path d="M515 310 c15 -77 76 -140 136 -140 33 0 40 4 45 25 8 33 -15 59 -78
91 -26 13 -49 28 -53 34 -3 5 -17 10 -30 10 -18 0 -23 -5 -20 -20z"/>
<path d="M840 156 c-35 -35 22 -63 211 -106 112 -24 202 -24 207 1 2 9 -5 19
-15 22 -10 3 -38 13 -63 23 -99 37 -323 77 -340 60z"/>
<path d="M6326 137 l-48 -31 22 -18 c23 -18 56 -23 84 -12 20 8 23 94 4 93 -7
0 -35 -15 -62 -32z"/>
<path d="M6073 75 c-59 -25 -38 -75 32 -75 50 0 91 35 80 69 -8 25 -62 28
-112 6z"/>
<path d="M1323 24 c-38 -17 2 -24 134 -24 118 0 145 3 135 12 -13 13 -244 23
-269 12z"/>
<path d="M5845 16 c-18 -14 -14 -15 53 -16 55 0 73 3 70 13 -7 19 -99 21 -123
3z"/>
</g>
</svg>
